<svg width="80" height="80" viewBox="0 0 80 80" fill="none" xmlns="http://www.w3.org/2000/svg">
  <path d="M40 20C35 20 30 22 27 25C25 23 22 22 20 25C18 28 20 32 23 33C22 35 22 38 23 40C22 42 22 45 23 47C20 48 18 52 20 55C22 58 25 57 27 55C30 58 35 60 40 60C45 60 50 58 53 55C55 57 58 58 60 55C62 52 60 48 57 47C58 45 58 42 57 40C58 38 58 35 57 33C60 32 62 28 60 25C58 22 55 23 53 25C50 22 45 20 40 20Z" fill="#1A1A1A"/>
  <circle cx="35" cy="30" r="2" fill="#FF7A00"/>
  <circle cx="45" cy="30" r="2" fill="#FF7A00"/>
</svg>

