<svg width="80" height="80" viewBox="0 0 80 80" fill="none" xmlns="http://www.w3.org/2000/svg">
  <path d="M40 10C25 10 15 20 15 35C15 45 20 50 25 55C20 60 15 65 15 70C15 75 25 75 30 72C35 75 45 75 50 72C55 75 65 75 65 70C65 65 60 60 55 55C60 50 65 45 65 35C65 20 55 10 40 10Z" fill="#FF7A00"/>
  <path d="M35 35C33 35 30 37 30 40C30 43 33 45 35 45C37 45 40 43 40 40C40 37 37 35 35 35Z" fill="#000000"/>
  <path d="M45 35C43 35 40 37 40 40C40 43 43 45 45 45C47 45 50 43 50 40C50 37 47 35 45 35Z" fill="#000000"/>
  <path d="M30 50C30 52 32 54 35 54C38 54 40 52 40 50" stroke="#000000" stroke-width="2" fill="none"/>
</svg>

