<svg width="100" height="100" viewBox="0 0 100 100" fill="none" xmlns="http://www.w3.org/2000/svg">
  <circle cx="50" cy="50" r="2" fill="#FFFFFF"/>
  <line x1="50" y1="50" x2="50" y2="20" stroke="#FFFFFF" stroke-width="1"/>
  <line x1="50" y1="50" x2="50" y2="80" stroke="#FFFFFF" stroke-width="1"/>
  <line x1="50" y1="50" x2="20" y2="50" stroke="#FFFFFF" stroke-width="1"/>
  <line x1="50" y1="50" x2="80" y2="50" stroke="#FFFFFF" stroke-width="1"/>
  <line x1="50" y1="50" x2="30" y2="30" stroke="#FFFFFF" stroke-width="1"/>
  <line x1="50" y1="50" x2="70" y2="30" stroke="#FFFFFF" stroke-width="1"/>
  <line x1="50" y1="50" x2="30" y2="70" stroke="#FFFFFF" stroke-width="1"/>
  <line x1="50" y1="50" x2="70" y2="70" stroke="#FFFFFF" stroke-width="1"/>
  <path d="M50 20A30 30 0 0 1 80 50" stroke="#FFFFFF" stroke-width="1" fill="none"/>
  <path d="M80 50A30 30 0 0 1 50 80" stroke="#FFFFFF" stroke-width="1" fill="none"/>
  <path d="M50 80A30 30 0 0 1 20 50" stroke="#FFFFFF" stroke-width="1" fill="none"/>
  <path d="M20 50A30 30 0 0 1 50 20" stroke="#FFFFFF" stroke-width="1" fill="none"/>
</svg>

